<svg preserveAspectRatio="none" width="100%" height="100%" overflow="visible" style="display: block;" viewBox="0 0 11 11" fill="none" xmlns="http://www.w3.org/2000/svg">
<path id="Icon" d="M4.73 8.03L8.6075 4.1525L7.8375 3.3825L4.73 6.49L3.1625 4.9225L2.3925 5.6925L4.73 8.03ZM5.5 11C4.73917 11 4.02417 10.8556 3.355 10.5669C2.68583 10.2781 2.10375 9.88625 1.60875 9.39125C1.11375 8.89625 0.721875 8.31417 0.433125 7.645C0.144375 6.97583 0 6.26083 0 5.5C0 4.73917 0.144375 4.02417 0.433125 3.355C0.721875 2.68583 1.11375 2.10375 1.60875 1.60875C2.10375 1.11375 2.68583 0.721875 3.355 0.433125C4.02417 0.144375 4.73917 0 5.5 0C6.26083 0 6.97583 0.144375 7.645 0.433125C8.31417 0.721875 8.89625 1.11375 9.39125 1.60875C9.88625 2.10375 10.2781 2.68583 10.5669 3.355C10.8556 4.02417 11 4.73917 11 5.5C11 6.26083 10.8556 6.97583 10.5669 7.645C10.2781 8.31417 9.88625 8.89625 9.39125 9.39125C8.89625 9.88625 8.31417 10.2781 7.645 10.5669C6.97583 10.8556 6.26083 11 5.5 11Z" fill="var(--fill-0, #662626)"/>
</svg>
