<svg preserveAspectRatio="none" width="100%" height="100%" overflow="visible" style="display: block;" viewBox="0 0 24 18" fill="none" xmlns="http://www.w3.org/2000/svg">
<path id="Icon" d="M15.6 16.7586V14.2759H20.4V16.7586H15.6ZM15.6 6.82759V4.34483H24V6.82759H15.6ZM15.6 11.7931V9.31034H22.8V11.7931H15.6ZM1.2 4.34483H0V1.86207H4.8V0H9.6V1.86207H14.4V4.34483H13.2V15.5172C13.2 16.2 12.965 16.7845 12.495 17.2707C12.025 17.7569 11.46 18 10.8 18H3.6C2.94 18 2.375 17.7569 1.905 17.2707C1.435 16.7845 1.2 16.2 1.2 15.5172V4.34483ZM3.6 4.34483V15.5172H10.8V4.34483H3.6Z" fill="var(--fill-0, #FF8732)"/>
</svg>
