<svg preserveAspectRatio="none" width="100%" height="100%" overflow="visible" style="display: block;" viewBox="0 0 16 14" fill="none" xmlns="http://www.w3.org/2000/svg">
<path id="sub-Icon4" d="M2.90909 14C2.70303 14 2.5303 13.9255 2.39091 13.7764C2.25152 13.6273 2.18182 13.4426 2.18182 13.2222V12.4444C1.57576 12.4444 1.06061 12.2176 0.636364 11.7639C0.212121 11.3102 0 10.7593 0 10.1111V6.22222C0 5.57407 0.212121 5.02315 0.636364 4.56944C1.06061 4.11574 1.57576 3.88889 2.18182 3.88889V2.33333C2.18182 1.68519 2.39394 1.13426 2.81818 0.680556C3.24242 0.226852 3.75758 0 4.36364 0H11.6364C12.2424 0 12.7576 0.226852 13.1818 0.680556C13.6061 1.13426 13.8182 1.68519 13.8182 2.33333V3.88889C14.4242 3.88889 14.9394 4.11574 15.3636 4.56944C15.7879 5.02315 16 5.57407 16 6.22222V10.1111C16 10.7593 15.7879 11.3102 15.3636 11.7639C14.9394 12.2176 14.4242 12.4444 13.8182 12.4444V13.2222C13.8182 13.4426 13.7485 13.6273 13.6091 13.7764C13.4697 13.9255 13.297 14 13.0909 14C12.8848 14 12.7121 13.9255 12.5727 13.7764C12.4333 13.6273 12.3636 13.4426 12.3636 13.2222V12.4444H3.63636V13.2222C3.63636 13.4426 3.56667 13.6273 3.42727 13.7764C3.28788 13.9255 3.11515 14 2.90909 14ZM2.18182 10.8889H13.8182C14.0242 10.8889 14.197 10.8144 14.3364 10.6653C14.4758 10.5162 14.5455 10.3315 14.5455 10.1111V6.22222C14.5455 6.00185 14.4758 5.81713 14.3364 5.66806C14.197 5.51898 14.0242 5.44444 13.8182 5.44444C13.6121 5.44444 13.4394 5.51898 13.3 5.66806C13.1606 5.81713 13.0909 6.00185 13.0909 6.22222V9.33333H2.90909V6.22222C2.90909 6.00185 2.83939 5.81713 2.7 5.66806C2.56061 5.51898 2.38788 5.44444 2.18182 5.44444C1.97576 5.44444 1.80303 5.51898 1.66364 5.66806C1.52424 5.81713 1.45455 6.00185 1.45455 6.22222V10.1111C1.45455 10.3315 1.52424 10.5162 1.66364 10.6653C1.80303 10.8144 1.97576 10.8889 2.18182 10.8889ZM4.36364 7.77778H11.6364V6.22222C11.6364 5.87222 11.703 5.55463 11.8364 5.26944C11.9697 4.98426 12.1455 4.73148 12.3636 4.51111V2.33333C12.3636 2.11296 12.2939 1.92824 12.1545 1.77917C12.0152 1.63009 11.8424 1.55556 11.6364 1.55556H4.36364C4.15758 1.55556 3.98485 1.63009 3.84545 1.77917C3.70606 1.92824 3.63636 2.11296 3.63636 2.33333V4.51111C3.85455 4.73148 4.0303 4.98426 4.16364 5.26944C4.29697 5.55463 4.36364 5.87222 4.36364 6.22222V7.77778Z" fill="var(--fill-0, #FF8732)"/>
</svg>
