<svg preserveAspectRatio="none" width="100%" height="100%" overflow="visible" style="display: block;" viewBox="0 0 19 16" fill="none" xmlns="http://www.w3.org/2000/svg">
<path id="sub-Icon7" d="M14.725 5.33333C14.1075 5.33333 13.5573 5.13968 13.0744 4.75238C12.5915 4.36508 12.35 3.92381 12.35 3.42857C12.35 2.98413 12.5321 2.49206 12.8962 1.95238C13.2604 1.4127 13.87 0.761905 14.725 0C15.58 0.761905 16.1896 1.4127 16.5537 1.95238C16.9179 2.49206 17.1 2.98413 17.1 3.42857C17.1 3.92381 16.8585 4.36508 16.3756 4.75238C15.8927 5.13968 15.3425 5.33333 14.725 5.33333ZM3.8 16C2.755 16 1.86042 15.7016 1.11625 15.1048C0.372083 14.5079 0 13.7905 0 12.9524V8.8381C0 8.44444 0.114792 8.07937 0.344375 7.74286C0.573958 7.40635 0.894583 7.13016 1.30625 6.91429L9.14375 2.8381L9.61875 3.21905C9.93542 3.47302 10.1215 3.7746 10.1769 4.12381C10.2323 4.47302 10.1413 4.8 9.90375 5.10476L8.835 6.47619H16.15C16.4192 6.47619 16.6448 6.54921 16.8269 6.69524C17.009 6.84127 17.1 7.02222 17.1 7.2381C17.1 7.45397 17.009 7.63492 16.8269 7.78095C16.6448 7.92698 16.4192 8 16.15 8H5.415L7.24375 5.6381L2.3275 8.19048C2.185 8.25397 2.07813 8.34286 2.00688 8.45714C1.93563 8.57143 1.9 8.69841 1.9 8.8381V12.9524C1.9 13.3714 2.08604 13.7302 2.45813 14.0286C2.83021 14.327 3.2775 14.4762 3.8 14.4762H15.2C15.4692 14.4762 15.6948 14.5492 15.8769 14.6952C16.059 14.8413 16.15 15.0222 16.15 15.2381C16.15 15.454 16.059 15.6349 15.8769 15.781C15.6948 15.927 15.4692 16 15.2 16H3.8ZM9.5 10.6667V9.14286H18.05C18.3192 9.14286 18.5448 9.21587 18.7269 9.36191C18.909 9.50794 19 9.68889 19 9.90476C19 10.1206 18.909 10.3016 18.7269 10.4476C18.5448 10.5937 18.3192 10.6667 18.05 10.6667H9.5ZM9.5 13.3333V11.8095H17.1C17.3692 11.8095 17.5948 11.8825 17.7769 12.0286C17.959 12.1746 18.05 12.3556 18.05 12.5714C18.05 12.7873 17.959 12.9683 17.7769 13.1143C17.5948 13.2603 17.3692 13.3333 17.1 13.3333H9.5Z" fill="var(--fill-0, #FF8732)"/>
</svg>
