<svg preserveAspectRatio="none" width="100%" height="100%" overflow="visible" style="display: block;" viewBox="0 0 14 16" fill="none" xmlns="http://www.w3.org/2000/svg">
<path id="sub-Icon10" d="M1.75 16C1.26875 16 0.856771 15.8433 0.514062 15.53C0.171354 15.2167 0 14.84 0 14.4V4.8C0 4.36 0.171354 3.98333 0.514062 3.67C0.856771 3.35667 1.26875 3.2 1.75 3.2H3.5C3.5 2.32 3.84271 1.56667 4.52813 0.94C5.21354 0.313333 6.0375 0 7 0C7.9625 0 8.78646 0.313333 9.47187 0.94C10.1573 1.56667 10.5 2.32 10.5 3.2H12.25C12.7313 3.2 13.1432 3.35667 13.4859 3.67C13.8286 3.98333 14 4.36 14 4.8V14.4C14 14.84 13.8286 15.2167 13.4859 15.53C13.1432 15.8433 12.7313 16 12.25 16H1.75ZM1.75 14.4H12.25V4.8H10.5V6.4C10.5 6.62667 10.4161 6.81667 10.2484 6.97C10.0807 7.12333 9.87292 7.2 9.625 7.2C9.37708 7.2 9.16927 7.12333 9.00156 6.97C8.83385 6.81667 8.75 6.62667 8.75 6.4V4.8H5.25V6.4C5.25 6.62667 5.16615 6.81667 4.99844 6.97C4.83073 7.12333 4.62292 7.2 4.375 7.2C4.12708 7.2 3.91927 7.12333 3.75156 6.97C3.58385 6.81667 3.5 6.62667 3.5 6.4V4.8H1.75V14.4ZM5.25 3.2H8.75C8.75 2.76 8.57865 2.38333 8.23594 2.07C7.89323 1.75667 7.48125 1.6 7 1.6C6.51875 1.6 6.10677 1.75667 5.76406 2.07C5.42135 2.38333 5.25 2.76 5.25 3.2Z" fill="var(--fill-0, #FF8732)"/>
</svg>
