<svg preserveAspectRatio="none" width="100%" height="100%" overflow="visible" style="display: block;" viewBox="0 0 19 16" fill="none" xmlns="http://www.w3.org/2000/svg">
<g id="sub-Icon 2">
<path id="Vector" d="M16.8889 0H2.11111C0.95 0 0 0.8 0 1.77778V14.2222C0 15.2 0.95 16 2.11111 16H16.8889C18.05 16 19 15.2 19 14.2222V1.77778C19 0.8 18.05 0 16.8889 0ZM14.7778 14.2222H4.22222V14.0089C5.72111 12.9956 7.55778 12.4444 9.5 12.4444C11.4422 12.4444 13.2789 12.9956 14.7778 14.0089V14.2222ZM16.8889 13.2089C14.9889 11.6356 12.3817 10.6667 9.5 10.6667C6.61833 10.6667 4.01111 11.6356 2.11111 13.2089V1.77778H16.8889V13.2089ZM9.5 8.88889C11.5372 8.88889 13.1944 7.49333 13.1944 5.77778C13.1944 4.06222 11.5372 2.66667 9.5 2.66667C7.46278 2.66667 5.80556 4.06222 5.80556 5.77778C5.80556 7.49333 7.46278 8.88889 9.5 8.88889ZM9.5 4.44444C10.3761 4.44444 11.0833 5.04 11.0833 5.77778C11.0833 6.51556 10.3761 7.11111 9.5 7.11111C8.62389 7.11111 7.91667 6.51556 7.91667 5.77778C7.91667 5.04 8.62389 4.44444 9.5 4.44444Z" fill="var(--fill-0, #FF8732)"/>
</g>
</svg>
