<svg preserveAspectRatio="none" width="100%" height="100%" overflow="visible" style="display: block;" viewBox="0 0 19 15" fill="none" xmlns="http://www.w3.org/2000/svg">
<path id="sub-Icon6" d="M17.2727 0H1.72727C0.777273 0 0 0.75 0 1.66667V11.6667C0 12.5833 0.777273 13.3333 1.72727 13.3333H6.04545V15H12.9545V13.3333H17.2727C18.2227 13.3333 19 12.5833 19 11.6667V1.66667C19 0.75 18.2227 0 17.2727 0ZM17.2727 11.6667H1.72727V1.66667H17.2727V11.6667ZM15.5455 4.16667H6.04545V5.83333H15.5455V4.16667ZM15.5455 7.5H6.04545V9.16667H15.5455V7.5ZM5.18182 4.16667H3.45455V5.83333H5.18182V4.16667ZM5.18182 7.5H3.45455V9.16667H5.18182V7.5Z" fill="var(--fill-0, #FF8732)"/>
</svg>
