<svg preserveAspectRatio="none" width="100%" height="100%" overflow="visible" style="display: block;" viewBox="0 0 18 20" fill="none" xmlns="http://www.w3.org/2000/svg">
<path id="sub-Icon8" d="M13 6C12.5833 6 12.2292 5.85417 11.9375 5.5625C11.6458 5.27083 11.5 4.91667 11.5 4.5C11.5 4.21667 11.6417 3.84167 11.925 3.375C12.2083 2.90833 12.5667 2.45 13 2C13.4333 2.45 13.7917 2.90833 14.075 3.375C14.3583 3.84167 14.5 4.21667 14.5 4.5C14.5 4.91667 14.3542 5.27083 14.0625 5.5625C13.7708 5.85417 13.4167 6 13 6ZM15.5 13C14.8 13 14.2083 12.7583 13.725 12.275C13.2417 11.7917 13 11.2 13 10.5C13 9.91667 13.2583 9.19583 13.775 8.3375C14.2917 7.47917 14.8667 6.7 15.5 6C16.1333 6.7 16.7083 7.47917 17.225 8.3375C17.7417 9.19583 18 9.91667 18 10.5C18 11.2 17.7583 11.7917 17.275 12.275C16.7917 12.7583 16.2 13 15.5 13ZM5 16H7V14H9V12H7V10H5V12H3V14H5V16ZM2 20C1.45 20 0.979167 19.8042 0.5875 19.4125C0.195833 19.0208 0 18.55 0 18V10C0 8.5 0.475 7.2 1.425 6.1C2.375 5 3.56667 4.33333 5 4.1V2H3V0H9C9.56667 0 10.1 0.0875 10.6 0.2625C11.1 0.4375 11.5667 0.683333 12 1L10.55 2.45C10.3167 2.31667 10.0708 2.20833 9.8125 2.125C9.55417 2.04167 9.28333 2 9 2H7V4.1C8.43333 4.33333 9.625 5 10.575 6.1C11.525 7.2 12 8.5 12 10V18C12 18.55 11.8042 19.0208 11.4125 19.4125C11.0208 19.8042 10.55 20 10 20H2ZM2 18H10V10C10 8.9 9.60833 7.95833 8.825 7.175C8.04167 6.39167 7.1 6 6 6C4.9 6 3.95833 6.39167 3.175 7.175C2.39167 7.95833 2 8.9 2 10V18ZM2 18C2 18 2.39167 18 3.175 18C3.95833 18 4.9 18 6 18C7.1 18 8.04167 18 8.825 18C9.60833 18 10 18 10 18H2Z" fill="var(--fill-0, #FF8732)"/>
</svg>
