<svg preserveAspectRatio="none" width="100%" height="100%" overflow="visible" style="display: block;" viewBox="0 0 27.1562 22.5" fill="none" xmlns="http://www.w3.org/2000/svg">
<g id="Container">
<path id="Icon" d="M3.75 11.25L0 4.75L8.25 0H9.84375C10.1771 1 10.5729 1.875 11.0312 2.625C11.4896 3.375 12.3438 3.75 13.5938 3.75C14.8438 3.75 15.6979 3.375 16.1562 2.625C16.6146 1.875 17.0104 1 17.3438 0H18.9375L27.1562 4.78125L23.4375 11.25L21.0938 9.96875V15.9688L19.125 17.6875C19.0625 17.7292 18.9792 17.7812 18.875 17.8438C18.7708 17.9062 18.6771 17.9583 18.5938 18V5.71875L22.5 7.875L23.75 5.6875L18.9688 2.90625C18.4688 3.92708 17.7344 4.73958 16.7656 5.34375C15.7969 5.94792 14.7396 6.25 13.5938 6.25C12.4479 6.25 11.3906 5.94792 10.4219 5.34375C9.45312 4.73958 8.71875 3.92708 8.21875 2.90625L3.40625 5.6875L4.6875 7.875L8.59375 5.71875V13.125C8.15625 13.1667 7.72917 13.2344 7.3125 13.3281C6.89583 13.4219 6.48958 13.5521 6.09375 13.7188V9.96875L3.75 11.25ZM4.40625 20.4688L2.78125 18.5625L5.5 16.25C5.97917 15.8333 6.52604 15.5156 7.14062 15.2969C7.75521 15.0781 8.39583 14.9688 9.0625 14.9688C9.72917 14.9688 10.3646 15.0781 10.9688 15.2969C11.5729 15.5156 12.1146 15.8333 12.5938 16.25L16.2188 19.3438C16.4688 19.5521 16.7656 19.7135 17.1094 19.8281C17.4531 19.9427 17.8021 20 18.1562 20C18.5312 20 18.8802 19.9479 19.2031 19.8438C19.526 19.7396 19.8125 19.5729 20.0625 19.3438L22.7812 17L24.4062 18.9375L21.6875 21.25C21.2083 21.6667 20.6667 21.9792 20.0625 22.1875C19.4583 22.3958 18.8229 22.5 18.1562 22.5C17.4896 22.5 16.849 22.3958 16.2344 22.1875C15.6198 21.9792 15.0729 21.6667 14.5938 21.25L10.9688 18.1562C10.7188 17.9479 10.4323 17.7865 10.1094 17.6719C9.78646 17.5573 9.4375 17.5 9.0625 17.5C8.70833 17.5 8.35938 17.5573 8.01562 17.6719C7.67188 17.7865 7.375 17.9479 7.125 18.1562L4.40625 20.4688Z" fill="var(--fill-0, #FF8732)"/>
</g>
</svg>
