<svg preserveAspectRatio="none" width="100%" height="100%" overflow="visible" style="display: block;" viewBox="0 0 22.514 18" fill="none" xmlns="http://www.w3.org/2000/svg">
<path id="Icon" d="M10.1313 15.7275L4.5028 13.14C4.14633 12.975 3.8696 12.7575 3.6726 12.4875C3.4756 12.2175 3.3771 11.9175 3.3771 11.5875V6.4125C3.3771 6.0825 3.4756 5.7825 3.6726 5.5125C3.8696 5.2425 4.14633 5.025 4.5028 4.86L10.1313 2.2725C10.4878 2.1075 10.863 2.025 11.257 2.025C11.651 2.025 12.0262 2.1075 12.3827 2.2725L18.0112 4.86C18.3677 5.025 18.6444 5.2425 18.8414 5.5125C19.0384 5.7825 19.1369 6.0825 19.1369 6.4125V11.5875C19.1369 11.9175 19.0384 12.2175 18.8414 12.4875C18.6444 12.7575 18.3677 12.975 18.0112 13.14L12.3827 15.7275C12.0262 15.8925 11.651 15.975 11.257 15.975C10.863 15.975 10.4878 15.8925 10.1313 15.7275ZM10.1313 13.6575V9.5175L5.6285 7.425V11.5875L10.1313 13.6575ZM12.3827 13.6575L16.8855 11.5875V7.425L12.3827 9.5175V13.6575ZM0 4.5V1.8C0 1.305 0.22045 0.88125 0.661349 0.52875C1.10225 0.17625 1.63227 0 2.2514 0H5.6285V1.8H2.2514V4.5H0ZM5.6285 18H2.2514C1.63227 18 1.10225 17.8237 0.661349 17.4712C0.22045 17.1187 0 16.695 0 16.2V13.5H2.2514V16.2H5.6285V18ZM16.8855 18V16.2H20.2626V13.5H22.514V16.2C22.514 16.695 22.2936 17.1187 21.8527 17.4712C21.4118 17.8237 20.8818 18 20.2626 18H16.8855ZM20.2626 4.5V1.8H16.8855V0H20.2626C20.8818 0 21.4118 0.17625 21.8527 0.52875C22.2936 0.88125 22.514 1.305 22.514 1.8V4.5H20.2626ZM11.257 7.965L15.7035 5.8725L11.257 3.825L6.81049 5.8725L11.257 7.965Z" fill="var(--fill-0, white)"/>
</svg>
