<svg preserveAspectRatio="none" width="100%" height="100%" overflow="visible" style="display: block;" viewBox="0 0 23.0041 16.8679" fill="none" xmlns="http://www.w3.org/2000/svg">
<path id="Icon" d="M4.2376 7.59056L10.8967 0L17.5558 7.59056H4.2376ZM17.5558 16.8679C16.0423 16.8679 14.7559 16.4989 13.6965 15.761C12.6371 15.023 12.1074 14.1269 12.1074 13.0726C12.1074 12.0184 12.6371 11.1223 13.6965 10.3843C14.7559 9.64634 16.0423 9.27735 17.5558 9.27735C19.0692 9.27735 20.3556 9.64634 21.415 10.3843C22.4744 11.1223 23.0041 12.0184 23.0041 13.0726C23.0041 14.1269 22.4744 15.023 21.415 15.761C20.3556 16.4989 19.0692 16.8679 17.5558 16.8679ZM0 16.4462V9.69905H9.68594V16.4462H0Z" fill="var(--fill-0, white)"/>
</svg>
