<svg preserveAspectRatio="none" width="100%" height="100%" overflow="visible" style="display: block;" viewBox="0 0 14.5 15.9986" fill="none" xmlns="http://www.w3.org/2000/svg">
<g id="Group 927">
<path id="Vector 612" d="M0.731651 6.84838L0 4.79387L7.58257 0C9.77752 0.996129 12.5711 2.98839 13.5023 4.17129C14.0904 4.91839 14.4335 5.60322 14.4335 7.09742C14.4335 9.96129 12.3937 11.1857 11.5069 11.5177L13.0367 13.6345L13.7683 14.8797L14.5 15.9381H11.5069L8.97936 11.9535H7.91514V13.261L4.78899 10.8329L7.91514 8.52935L7.98165 9.71225C12.611 9.71225 12.3937 6.86914 11.6399 5.35419C11.2142 4.80632 8.62462 3.25817 7.38303 2.55258L0.731651 6.84838Z" fill="var(--fill-0, #FF5C00)"/>
<path id="Vector 613" d="M3.98887 6.59766L1.86043 7.90508V15.9986H3.98887V6.59766Z" fill="var(--fill-0, #FF5C00)"/>
</g>
</svg>
