<svg preserveAspectRatio="none" width="100%" height="100%" overflow="visible" style="display: block;" viewBox="0 0 28 29.9995" fill="none" xmlns="http://www.w3.org/2000/svg">
<g id="Group 927">
<path id="Vector 612" d="M1.41284 12.8404L0 8.98831L14.6422 0C18.8807 1.8677 24.2752 5.6031 26.0734 7.821C27.2091 9.22177 27.8716 10.5058 27.8716 13.3074C27.8716 18.677 23.9327 20.9727 22.2202 21.5953L25.1743 25.5641L26.5872 27.8988L28 29.8832H22.2202L17.3394 22.4124H15.2844V24.8638L9.24771 20.3112L15.2844 15.9922L15.4128 18.2101C24.3523 18.2101 23.9327 12.8794 22.4771 10.0389C21.655 9.01165 16.6544 6.10894 14.2569 4.78598L1.41284 12.8404Z" fill="var(--fill-0, #FF8732)"/>
<path id="Vector 613" d="M7.70579 12.373L3.5957 14.8244V29.9995H7.70579V12.373Z" fill="var(--fill-0, #FF8732)"/>
</g>
</svg>
