<svg preserveAspectRatio="none" width="100%" height="100%" overflow="visible" style="display: block;" viewBox="0 0 21.9486 18" fill="none" xmlns="http://www.w3.org/2000/svg">
<path id="Icon" d="M9.87687 15.7275L4.38972 13.14C4.0422 12.975 3.77242 12.7575 3.58037 12.4875C3.38832 12.2175 3.29229 11.9175 3.29229 11.5875V6.4125C3.29229 6.0825 3.38832 5.7825 3.58037 5.5125C3.77242 5.2425 4.0422 5.025 4.38972 4.86L9.87687 2.2725C10.2244 2.1075 10.5902 2.025 10.9743 2.025C11.3584 2.025 11.7242 2.1075 12.0717 2.2725L17.5589 4.86C17.9064 5.025 18.1762 5.2425 18.3682 5.5125C18.5603 5.7825 18.6563 6.0825 18.6563 6.4125V11.5875C18.6563 11.9175 18.5603 12.2175 18.3682 12.4875C18.1762 12.7575 17.9064 12.975 17.5589 13.14L12.0717 15.7275C11.7242 15.8925 11.3584 15.975 10.9743 15.975C10.5902 15.975 10.2244 15.8925 9.87687 15.7275ZM9.87687 13.6575V9.5175L5.48715 7.425V11.5875L9.87687 13.6575ZM12.0717 13.6575L16.4614 11.5875V7.425L12.0717 9.5175V13.6575ZM0 4.5V1.8C0 1.305 0.214913 0.88125 0.64474 0.52875C1.07457 0.17625 1.59127 0 2.19486 0H5.48715V1.8H2.19486V4.5H0ZM5.48715 18H2.19486C1.59127 18 1.07457 17.8237 0.64474 17.4712C0.214913 17.1187 0 16.695 0 16.2V13.5H2.19486V16.2H5.48715V18ZM16.4614 18V16.2H19.7537V13.5H21.9486V16.2C21.9486 16.695 21.7337 17.1187 21.3039 17.4712C20.874 17.8237 20.3573 18 19.7537 18H16.4614ZM19.7537 4.5V1.8H16.4614V0H19.7537C20.3573 0 20.874 0.17625 21.3039 0.52875C21.7337 0.88125 21.9486 1.305 21.9486 1.8V4.5H19.7537ZM10.9743 7.965L15.3091 5.8725L10.9743 3.825L6.63945 5.8725L10.9743 7.965Z" fill="var(--fill-0, black)"/>
</svg>
