<svg preserveAspectRatio="none" width="100%" height="100%" overflow="visible" style="display: block;" viewBox="0 0 13.5 10.5" fill="none" xmlns="http://www.w3.org/2000/svg">
<path id="Icon" d="M0 9V1.5C0 1.0875 0.146875 0.734375 0.440625 0.440625C0.734375 0.146875 1.0875 0 1.5 0H12C12.4125 0 12.7656 0.146875 13.0594 0.440625C13.3531 0.734375 13.5 1.0875 13.5 1.5V9C13.5 9.4125 13.3531 9.76562 13.0594 10.0594C12.7656 10.3531 12.4125 10.5 12 10.5H1.5C1.0875 10.5 0.734375 10.3531 0.440625 10.0594C0.146875 9.76562 0 9.4125 0 9V9M5.49375 4.5H12V4.5V4.5V1.5V1.5V1.5H5.49375V1.5V1.5V4.5V4.5V4.5V4.5M9.50625 9H12V9V9V6V6V6H9.50625V6V6V9V9V9V9M5.49375 9H8.00625V9V9V6V6V6H5.49375V6V6V9V9V9V9M1.5 9H3.99375V9V9V1.5V1.5V1.5H1.5V1.5V1.5V9V9V9V9" fill="var(--fill-0, #FF8732)"/>
</svg>
