<svg preserveAspectRatio="none" width="100%" height="100%" overflow="visible" style="display: block;" viewBox="0 0 27 27" fill="none" xmlns="http://www.w3.org/2000/svg">
<path id="Icon" d="M15 27V24H18V27H15ZM12 24V16.5H15V24H12ZM24 19.5V13.5H27V19.5H24ZM21 13.5V10.5H24V13.5H21ZM3 16.5V13.5H6V16.5H3ZM0 13.5V10.5H3V13.5H0ZM13.5 3V0H16.5V3H13.5ZM2.25 6.75H6.75V2.25H2.25V6.75ZM0 9V0H9V9H0ZM2.25 24.75H6.75V20.25H2.25V24.75ZM0 27V18H9V27H0ZM20.25 6.75H24.75V2.25H20.25V6.75ZM18 9V0H27V9H18ZM21 27V22.5H18V19.5H24V24H27V27H21ZM15 16.5V13.5H21V16.5H15ZM9 16.5V13.5H6V10.5H15V13.5H12V16.5H9ZM10.5 9V3H13.5V6H16.5V9H10.5ZM3.375 5.625V3.375H5.625V5.625H3.375ZM3.375 23.625V21.375H5.625V23.625H3.375ZM21.375 5.625V3.375H23.625V5.625H21.375Z" fill="var(--fill-0, #FF8732)"/>
</svg>
