<svg preserveAspectRatio="none" width="100%" height="100%" overflow="visible" style="display: block;" viewBox="0 0 20 21.25" fill="none" xmlns="http://www.w3.org/2000/svg">
<path id="Icon" d="M8 21.25V17.15L15.35 9.85C15.55 9.65 15.7708 9.5 16.0125 9.4C16.2542 9.3 16.5083 9.25 16.775 9.25C17.0417 9.25 17.2958 9.3 17.5375 9.4C17.7792 9.5 18 9.65 18.2 9.85L19.425 11.1C19.6083 11.3 19.75 11.5208 19.85 11.7625C19.95 12.0042 20 12.25 20 12.5C20 12.75 19.9458 12.9958 19.8375 13.2375C19.7292 13.4792 19.5833 13.7 19.4 13.9L12.1 21.25H8ZM10 19.25H11.25L15.3 15.2L14.675 14.575L14.05 13.95L10 18V19.25ZM8.75 8.5L7.35 7.075L9.175 5.25H5.825C5.675 5.68333 5.44167 6.05833 5.125 6.375C4.80833 6.69167 4.43333 6.925 4 7.075V15.425C4.58333 15.6417 5.0625 16.0042 5.4375 16.5125C5.8125 17.0208 6 17.6 6 18.25C6 19.0833 5.70833 19.7917 5.125 20.375C4.54167 20.9583 3.83333 21.25 3 21.25C2.16667 21.25 1.45833 20.9583 0.875 20.375C0.291667 19.7917 0 19.0833 0 18.25C0 17.6 0.1875 17.025 0.5625 16.525C0.9375 16.025 1.41667 15.6667 2 15.45V7.075C1.41667 6.85833 0.9375 6.49583 0.5625 5.9875C0.1875 5.47917 0 4.9 0 4.25C0 3.41667 0.291667 2.70833 0.875 2.125C1.45833 1.54167 2.16667 1.25 3 1.25C3.65 1.25 4.22917 1.4375 4.7375 1.8125C5.24583 2.1875 5.60833 2.66667 5.825 3.25H9.175L7.35 1.425L8.75 0L13 4.25L8.75 8.5ZM17 1.25C17.8333 1.25 18.5417 1.54167 19.125 2.125C19.7083 2.70833 20 3.41667 20 4.25C20 5.08333 19.7083 5.79167 19.125 6.375C18.5417 6.95833 17.8333 7.25 17 7.25C16.1667 7.25 15.4583 6.95833 14.875 6.375C14.2917 5.79167 14 5.08333 14 4.25C14 3.41667 14.2917 2.70833 14.875 2.125C15.4583 1.54167 16.1667 1.25 17 1.25ZM3 19.25C3.28333 19.25 3.52083 19.1542 3.7125 18.9625C3.90417 18.7708 4 18.5333 4 18.25C4 17.9667 3.90417 17.7292 3.7125 17.5375C3.52083 17.3458 3.28333 17.25 3 17.25C2.71667 17.25 2.47917 17.3458 2.2875 17.5375C2.09583 17.7292 2 17.9667 2 18.25C2 18.5333 2.09583 18.7708 2.2875 18.9625C2.47917 19.1542 2.71667 19.25 3 19.25ZM3 5.25C3.28333 5.25 3.52083 5.15417 3.7125 4.9625C3.90417 4.77083 4 4.53333 4 4.25C4 3.96667 3.90417 3.72917 3.7125 3.5375C3.52083 3.34583 3.28333 3.25 3 3.25C2.71667 3.25 2.47917 3.34583 2.2875 3.5375C2.09583 3.72917 2 3.96667 2 4.25C2 4.53333 2.09583 4.77083 2.2875 4.9625C2.47917 5.15417 2.71667 5.25 3 5.25ZM17 5.25C17.2833 5.25 17.5208 5.15417 17.7125 4.9625C17.9042 4.77083 18 4.53333 18 4.25C18 3.96667 17.9042 3.72917 17.7125 3.5375C17.5208 3.34583 17.2833 3.25 17 3.25C16.7167 3.25 16.4792 3.34583 16.2875 3.5375C16.0958 3.72917 16 3.96667 16 4.25C16 4.53333 16.0958 4.77083 16.2875 4.9625C16.4792 5.15417 16.7167 5.25 17 5.25Z" fill="var(--fill-0, #FF8732)"/>
</svg>
