<svg preserveAspectRatio="none" width="100%" height="100%" overflow="visible" style="display: block;" viewBox="0 0 18.3581 16.3636" fill="none" xmlns="http://www.w3.org/2000/svg">
<path id="Icon" d="M3.38176 7.36364L8.69596 0L14.0102 7.36364H3.38176ZM14.0102 16.3636C12.8024 16.3636 11.7758 16.0057 10.9303 15.2898C10.0849 14.5739 9.66217 13.7045 9.66217 12.6818C9.66217 11.6591 10.0849 10.7898 10.9303 10.0739C11.7758 9.35795 12.8024 9 14.0102 9C15.2179 9 16.2445 9.35795 17.09 10.0739C17.9354 10.7898 18.3581 11.6591 18.3581 12.6818C18.3581 13.7045 17.9354 14.5739 17.09 15.2898C16.2445 16.0057 15.2179 16.3636 14.0102 16.3636ZM0 15.9545V9.40909H7.72974V15.9545H0Z" fill="var(--fill-0, white)"/>
</svg>
