<svg preserveAspectRatio="none" width="100%" height="100%" overflow="visible" style="display: block;" viewBox="0 0 26.6363 14.9468" fill="none" xmlns="http://www.w3.org/2000/svg">
<path id="Icon" d="M17.3136 13.916V11.8544H22.6409V13.916H17.3136ZM17.3136 5.66949V3.60786H26.6363V5.66949H17.3136ZM17.3136 9.79276V7.73113H25.3045V9.79276H17.3136ZM1.33182 3.60786H0V1.54623H5.32727V0H10.6545V1.54623H15.9818V3.60786H14.65V12.8852C14.65 13.4522 14.3892 13.9375 13.8675 14.3412C13.3459 14.745 12.7189 14.9468 11.9864 14.9468H3.99545C3.26295 14.9468 2.63589 14.745 2.11426 14.3412C1.59263 13.9375 1.33182 13.4522 1.33182 12.8852V3.60786ZM3.99545 3.60786V12.8852H11.9864V3.60786H3.99545Z" fill="var(--fill-0, white)"/>
</svg>
