<svg preserveAspectRatio="none" width="100%" height="100%" overflow="visible" style="display: block;" viewBox="0 0 18.0683 16" fill="none" xmlns="http://www.w3.org/2000/svg">
<path id="Icon" d="M8.13072 13.98L3.61365 11.68C3.32757 11.5333 3.10548 11.34 2.94739 11.1C2.78929 10.86 2.71024 10.5933 2.71024 10.3V5.7C2.71024 5.40667 2.78929 5.14 2.94739 4.9C3.10548 4.66 3.32757 4.46667 3.61365 4.32L8.13072 2.02C8.4168 1.87333 8.71794 1.8 9.03413 1.8C9.35033 1.8 9.65147 1.87333 9.93755 2.02L14.4546 4.32C14.7407 4.46667 14.9628 4.66 15.1209 4.9C15.279 5.14 15.358 5.40667 15.358 5.7V10.3C15.358 10.5933 15.279 10.86 15.1209 11.1C14.9628 11.34 14.7407 11.5333 14.4546 11.68L9.93755 13.98C9.65147 14.1267 9.35033 14.2 9.03413 14.2C8.71794 14.2 8.4168 14.1267 8.13072 13.98ZM8.13072 12.14V8.46L4.51707 6.6V10.3L8.13072 12.14ZM9.93755 12.14L13.5512 10.3V6.6L9.93755 8.46V12.14ZM0 4V1.6C0 1.16 0.176918 0.783333 0.530755 0.47C0.884592 0.156667 1.30995 0 1.80683 0H4.51707V1.6H1.80683V4H0ZM4.51707 16H1.80683C1.30995 16 0.884592 15.8433 0.530755 15.53C0.176918 15.2167 0 14.84 0 14.4V12H1.80683V14.4H4.51707V16ZM13.5512 16V14.4H16.2614V12H18.0683V14.4C18.0683 14.84 17.8914 15.2167 17.5375 15.53C17.1837 15.8433 16.7583 16 16.2614 16H13.5512ZM16.2614 4V1.6H13.5512V0H16.2614C16.7583 0 17.1837 0.156667 17.5375 0.47C17.8914 0.783333 18.0683 1.16 18.0683 1.6V4H16.2614ZM9.03413 7.08L12.6026 5.22L9.03413 3.4L5.46565 5.22L9.03413 7.08Z" fill="var(--fill-0, #FF8732)"/>
</svg>
