<svg preserveAspectRatio="none" width="100%" height="100%" overflow="visible" style="display: block;" viewBox="0 0 13 15.9996" fill="none" xmlns="http://www.w3.org/2000/svg">
<g id="logo2">
<path id="Vector 612" d="M0.655963 6.84838L0 4.79387L6.79817 0C8.76606 0.996129 11.2706 2.98839 12.1055 4.17129C12.6328 4.91839 12.9404 5.60322 12.9404 7.09742C12.9404 9.96129 11.1116 11.1857 10.3165 11.5177L11.6881 13.6345L12.344 14.8797L13 15.9381H10.3165L8.05046 11.9535H7.09633V13.261L4.29358 10.8329L7.09633 8.52935L7.15596 9.71225C11.3064 9.71225 11.1116 6.86914 10.4358 5.35419C10.0541 4.80632 7.73242 3.25817 6.61927 2.55258L0.655963 6.84838Z" fill="var(--fill-0, #FF8732)"/>
<path id="Vector 613" d="M2.57481 6.59863L0.666548 7.90605V15.9996H2.57481V6.59863Z" fill="var(--fill-0, #FF8732)"/>
</g>
</svg>
