<svg preserveAspectRatio="none" width="100%" height="100%" overflow="visible" style="display: block;" viewBox="0 0 22.4264 16.8679" fill="none" xmlns="http://www.w3.org/2000/svg">
<path id="Icon" d="M4.13118 7.59056L10.623 0L17.1149 7.59056H4.13118ZM17.1149 16.8679C15.6395 16.8679 14.3853 16.4989 13.3526 15.761C12.3198 15.023 11.8034 14.1269 11.8034 13.0726C11.8034 12.0184 12.3198 11.1223 13.3526 10.3843C14.3853 9.64634 15.6395 9.27735 17.1149 9.27735C18.5903 9.27735 19.8444 9.64634 20.8772 10.3843C21.91 11.1223 22.4264 12.0184 22.4264 13.0726C22.4264 14.1269 21.91 15.023 20.8772 15.761C19.8444 16.4989 18.5903 16.8679 17.1149 16.8679ZM0 16.4462V9.69905H9.44269V16.4462H0Z" fill="var(--fill-0, black)"/>
</svg>
