<svg preserveAspectRatio="none" width="100%" height="100%" overflow="visible" style="display: block;" viewBox="0 0 24 24" fill="none" xmlns="http://www.w3.org/2000/svg">
<g id="Frame">
<path id="Vector" d="M4 5H6L8.1 14.2C8.2 14.68 8.62 15 9.11 15H17.8C18.25 15 18.64 14.7 18.75 14.26L20 9H7.2" stroke="var(--stroke-0, #0F1115)" stroke-width="1.2" stroke-linecap="round" stroke-linejoin="round"/>
<path id="Vector_2" d="M10 20.2C10.6627 20.2 11.2 19.6627 11.2 19C11.2 18.3373 10.6627 17.8 10 17.8C9.33726 17.8 8.8 18.3373 8.8 19C8.8 19.6627 9.33726 20.2 10 20.2Z" fill="var(--fill-0, #0F1115)"/>
<path id="Vector_3" d="M17 20.2C17.6627 20.2 18.2 19.6627 18.2 19C18.2 18.3373 17.6627 17.8 17 17.8C16.3373 17.8 15.8 18.3373 15.8 19C15.8 19.6627 16.3373 20.2 17 20.2Z" fill="var(--fill-0, #0F1115)"/>
</g>
</svg>
